<?xml version="1.0" encoding="utf-8"?>
<!-- Generator: Adobe Illustrator 16.0.0, SVG Export Plug-In . SVG Version: 6.00 Build 0)  -->
<!DOCTYPE svg PUBLIC "-//W3C//DTD SVG 1.1//EN" "http://www.w3.org/Graphics/SVG/1.1/DTD/svg11.dtd">
<svg version="1.1" id="Layer_1" xmlns="http://www.w3.org/2000/svg" xmlns:xlink="http://www.w3.org/1999/xlink" x="0px" y="0px"
	 width="160px" height="40px" viewBox="0 0 160 40" enable-background="new 0 0 160 40" xml:space="preserve">
<g>
	<g>
		<path fill="#FFFFFF" d="M50.098,16.813c-0.223-0.92-0.61-1.725-1.164-2.415c-0.554-0.689-1.273-1.227-2.156-1.61
			c-0.883-0.382-1.892-0.575-3.025-0.575c-1.442,0-2.718,0.284-3.828,0.851c-1.111,0.568-2.083,1.48-2.917,2.736
			c-0.317-0.645-0.649-1.195-0.998-1.654c-0.349-0.461-0.734-0.836-1.159-1.127s-0.924-0.498-1.5-0.62
			c-0.577-0.123-1.248-0.186-2.015-0.186c-1.502,0-2.837,0.276-4.008,0.829c-1.169,0.552-2.27,1.672-3.298,3.175L24.611,13h-5.61
			l-1.173,6.604l4.632,7.637l0.965-5.53c0.515-2.942,1.983-4.427,4.405-4.427c0.645,0,1.184,0.063,1.62,0.201
			s0.769,0.374,1.001,0.71c0.232,0.337,0.358,0.795,0.379,1.377c0.021,0.583-0.05,1.116-0.211,2.038L28.234,35h5.978l2.369-13.303
			c0.242-1.378,0.803-2.419,1.686-3.34c0.88-0.92,1.874-1.324,2.977-1.324c1.072,0,1.857,0.457,2.349,1.314
			c0.493,0.859,0.62,1.773,0.378,3.154L41.571,35h5.839l2.748-15.463C50.34,18.496,50.32,17.731,50.098,16.813z"/>
	</g>
	<path fill="#FFFFFF" d="M63.836,35.436c-0.082-0.582-0.086-1.256-0.013-2.023c-0.846,0.797-1.892,1.434-3.14,1.908
		c-1.248,0.475-2.638,0.714-4.171,0.714c-2.605,0-4.413-0.577-5.423-1.725c-1.01-1.15-1.353-2.646-1.03-4.483
		c0.284-1.626,0.771-2.921,1.462-3.887c0.69-0.965,1.544-1.725,2.56-2.276s2.184-0.958,3.502-1.218
		c1.317-0.26,2.746-0.498,4.285-0.713c1.54-0.213,2.601-0.497,3.185-0.851c0.582-0.353,0.943-0.927,1.084-1.725
		c0.129-0.736-0.116-1.311-0.733-1.725s-1.509-0.62-2.673-0.62c-1.379,0-2.421,0.305-3.127,0.918
		c-0.705,0.614-1.223,1.426-1.553,2.437h-5.564c0.235-1.164,0.614-2.238,1.139-3.218c0.523-0.979,1.24-1.823,2.144-2.528
		c0.905-0.705,2.02-1.25,3.344-1.634c1.324-0.382,2.891-0.575,4.7-0.575c1.778,0,3.253,0.2,4.425,0.599
		c1.172,0.398,2.066,0.974,2.687,1.724c0.619,0.751,0.999,1.687,1.142,2.805c0.141,1.12,0.088,2.383-0.159,3.793L69.4,35.436H63.836
		z M65.363,24.354c-0.359,0.306-0.847,0.552-1.462,0.736c-0.615,0.184-1.493,0.382-2.633,0.597
		c-1.777,0.339-3.032,0.766-3.767,1.288c-0.734,0.521-1.188,1.271-1.36,2.251c-0.295,1.688,0.522,2.531,2.454,2.531
		c0.766,0,1.501-0.13,2.208-0.391c0.704-0.261,1.333-0.614,1.887-1.059c0.553-0.443,1.026-0.965,1.422-1.563
		c0.396-0.597,0.654-1.233,0.772-1.908L65.363,24.354z"/>
	<path fill="#FFFFFF" d="M71.859,35.436l3.964-22.624h5.609l-0.476,2.713c0.625-0.767,1.243-1.365,1.855-1.794
		c0.61-0.429,1.221-0.759,1.828-0.989c0.607-0.229,1.207-0.375,1.801-0.437c0.594-0.061,1.196-0.092,1.81-0.092h0.783l-1.071,6.116
		c-0.536-0.093-1.081-0.138-1.632-0.138c-3.649,0-5.792,1.824-6.431,5.472l-2.062,11.772H71.859z"/>
	<path fill="#FFFFFF" d="M101.371,35.436l0.438-2.759c-1.771,2.238-4.068,3.357-6.888,3.357c-1.442,0-2.71-0.276-3.809-0.828
		c-1.1-0.552-1.987-1.349-2.661-2.391c-0.679-1.042-1.129-2.315-1.356-3.817c-0.229-1.502-0.175-3.203,0.159-5.104
		c0.3-1.716,0.783-3.287,1.445-4.713c0.664-1.425,1.486-2.659,2.466-3.701c0.979-1.042,2.093-1.847,3.342-2.415
		c1.249-0.567,2.609-0.851,4.079-0.851c2.791,0,4.822,1.181,6.096,3.541l1.966-11.221h5.886l-5.415,30.902H101.371z M97.154,31.159
		c1.439,0,2.749-0.6,3.925-1.794c1.175-1.196,1.932-2.761,2.269-4.69c0.86-4.904-0.381-7.357-3.723-7.357
		c-3.434,0-5.56,2.33-6.375,6.99c-0.353,2.022-0.167,3.671,0.561,4.942C94.535,30.523,95.651,31.159,97.154,31.159z"/>
	<path fill="#FFFFFF" d="M118.687,31.91c0.788-1.557,1.833-3.54,3.134-5.951l6.352-11.854h3.479l-11.8,21.33h-3.609l-4.326-21.33
		h3.479l2.168,11.854c0.433,2.335,0.776,4.32,1.033,5.951H118.687z"/>
	<path fill="#FFFFFF" d="M128.624,35.436l3.736-21.33h3.479l-3.735,21.33H128.624z M133.139,9.143l0.682-3.885h3.48l-0.681,3.885
		H133.139z"/>
	<path fill="#FFFFFF" d="M135.16,35.436l5.693-32.512h3.479l-5.693,32.512H135.16z"/>
	<path fill="#FFFFFF" d="M154.437,33.077h-0.09c-0.347,0.36-0.769,0.716-1.265,1.067s-1.053,0.666-1.669,0.943
		c-0.618,0.277-1.277,0.497-1.98,0.663c-0.701,0.164-1.435,0.246-2.198,0.246c-1.033,0-1.953-0.153-2.762-0.461
		c-0.807-0.306-1.468-0.755-1.986-1.347c-0.517-0.59-0.872-1.314-1.066-2.166c-0.195-0.854-0.198-1.819-0.01-2.898
		c0.186-1.062,0.543-2.012,1.072-2.852c0.528-0.838,1.187-1.548,1.978-2.131c0.791-0.585,1.697-1.034,2.718-1.349
		c1.021-0.313,2.115-0.472,3.282-0.472c1.104,0.017,2.114,0.113,3.024,0.293c0.911,0.179,1.712,0.403,2.397,0.674h0.09l0.259-1.483
		c0.102-0.582,0.155-1.1,0.159-1.549c0.003-0.448-0.055-0.846-0.174-1.19c-0.263-0.719-0.78-1.313-1.55-1.785
		c-0.77-0.471-1.881-0.708-3.334-0.708c-1.077,0-2.109,0.101-3.096,0.304c-0.986,0.201-1.982,0.482-2.987,0.841l0.511-2.918
		c0.391-0.179,0.844-0.348,1.357-0.505c0.514-0.157,1.05-0.292,1.61-0.405c0.558-0.112,1.141-0.198,1.751-0.258
		c0.608-0.06,1.213-0.09,1.812-0.09c2.155,0,3.851,0.382,5.087,1.146c1.236,0.764,2.042,1.774,2.421,3.031
		c0.142,0.48,0.21,1.008,0.206,1.583c-0.003,0.577-0.066,1.209-0.188,1.898l-2.493,14.234h-2.919L154.437,33.077z M155.484,26.072
		c-0.609-0.179-1.339-0.352-2.189-0.517c-0.853-0.163-1.805-0.253-2.858-0.268c-1.475,0-2.685,0.313-3.631,0.942
		c-0.944,0.628-1.531,1.595-1.758,2.895c-0.115,0.661-0.112,1.236,0.01,1.73c0.121,0.493,0.337,0.901,0.645,1.223
		c0.309,0.322,0.7,0.563,1.172,0.719c0.471,0.157,0.992,0.235,1.557,0.235c0.745,0,1.457-0.108,2.135-0.325
		c0.68-0.216,1.296-0.476,1.846-0.773c0.554-0.299,1.029-0.599,1.434-0.899c0.402-0.3,0.698-0.531,0.892-0.694L155.484,26.072z"/>
</g>
<polygon fill="#00C6FF" points="4.359,1.505 0.02,13.974 14.243,38 26.543,38 "/>
</svg>
